<svg xmlns="http://www.w3.org/2000/svg" xmlns:xlink="http://www.w3.org/1999/xlink" width="605" zoomAndPan="magnify" viewBox="0 0 453.75 170.249993" height="227" preserveAspectRatio="xMidYMid meet" version="1.2"><g id="197b609a2c"><path style=" stroke:none;fill-rule:nonzero;fill:#000000;fill-opacity:1;" d="M 153.792969 78.355469 C 153.785156 105.5 153.777344 132.386719 153.761719 159.277344 C 153.761719 162.78125 153.753906 162.792969 150.292969 162.796875 C 102.726562 162.804688 55.160156 162.789062 7.59375 162.863281 C 5.074219 162.867188 4.242188 162.234375 4.246094 159.59375 C 4.320312 109.5625 4.308594 59.527344 4.277344 9.492188 C 4.277344 7.441406 4.449219 6.253906 7.113281 6.257812 C 54.59375 6.34375 102.074219 6.328125 149.554688 6.332031 C 150.238281 6.332031 150.917969 6.371094 151.597656 6.335938 C 153.273438 6.242188 153.898438 7.070312 153.769531 8.664062 C 153.714844 9.339844 153.765625 10.027344 153.765625 10.707031 C 153.773438 33.171875 153.785156 55.632812 153.792969 78.355469 M 89.0625 40.304688 C 89.0625 39.113281 88.867188 37.882812 89.097656 36.738281 C 89.988281 32.292969 87.523438 30.351562 83.855469 28.808594 C 74.835938 25.011719 65.503906 23.914062 55.925781 25.445312 C 39.886719 28.015625 32.246094 39.941406 36.171875 55.96875 C 37.714844 62.28125 42.355469 66.132812 47.867188 69.058594 C 53.726562 72.171875 59.773438 74.894531 65.84375 77.566406 C 69.449219 79.148438 73 80.863281 75.597656 83.902344 C 79.320312 88.261719 79.976562 93.269531 78.34375 98.710938 C 76.828125 103.765625 73.019531 106.035156 68.28125 106.984375 C 61.949219 108.253906 55.824219 107.4375 49.886719 104.773438 C 46.488281 103.246094 44.832031 100.867188 44.511719 97.164062 C 44.082031 92.195312 43.941406 92.207031 38.84375 92.285156 C 38.675781 92.289062 38.503906 92.296875 38.332031 92.289062 C 36.171875 92.195312 35.25 93.257812 35.277344 95.386719 C 35.324219 98.871094 35.460938 102.371094 35.226562 105.84375 C 35.058594 108.382812 36.136719 109.652344 38.242188 110.789062 C 48.304688 116.214844 58.933594 118.238281 70.234375 116.402344 C 75.242188 115.585938 79.878906 113.878906 83.882812 110.570312 C 93.734375 102.429688 94.914062 80.839844 79.210938 72.835938 C 71.707031 69.011719 64.125 65.378906 56.496094 61.824219 C 51.292969 59.402344 47.667969 55.738281 46.902344 49.882812 C 45.835938 41.753906 48.480469 36.289062 56.730469 34.402344 C 62.089844 33.179688 67.382812 33.6875 72.53125 35.429688 C 76.796875 36.875 79.902344 39.429688 80.585938 44.324219 C 81.1875 48.632812 81.351562 48.609375 85.824219 48.558594 C 86.078125 48.554688 86.335938 48.53125 86.589844 48.550781 C 88.320312 48.691406 89.105469 47.910156 89.066406 46.171875 C 89.019531 44.386719 89.058594 42.597656 89.0625 40.304688 M 75.710938 58.632812 C 72.25 58.632812 68.789062 58.632812 65.492188 58.632812 C 64.53125 61.214844 65.265625 62.53125 67.441406 63.332031 C 69.109375 63.945312 70.65625 64.882812 72.277344 65.636719 C 74.03125 66.449219 75.609375 67.652344 77.71875 67.636719 C 82.480469 67.597656 87.253906 67.914062 91.996094 67.859375 C 101.507812 67.75 110.941406 73.824219 113.863281 84.160156 C 117.167969 95.859375 117.1875 107.671875 113.523438 119.277344 C 110.808594 127.886719 104.980469 133.460938 95.789062 134.898438 C 90.722656 135.691406 85.601562 135.113281 80.507812 135.1875 C 79 135.207031 79.117188 134.015625 79.140625 132.972656 C 79.199219 130.167969 79.289062 127.363281 79.289062 124.554688 C 79.285156 122.863281 78.554688 121.867188 76.636719 121.949219 C 74.34375 122.046875 72.039062 122.035156 69.746094 121.945312 C 67.949219 121.875 67.3125 122.679688 67.355469 124.382812 C 67.414062 126.851562 67.367188 129.320312 67.359375 131.789062 C 67.355469 135.230469 67.351562 135.230469 64.023438 135.234375 C 57.972656 135.246094 58.058594 135.246094 58.085938 141.191406 C 58.097656 143.402344 58.792969 144.121094 61.039062 144.097656 C 71.675781 143.996094 82.316406 144.195312 92.953125 144.019531 C 106.515625 143.796875 116.871094 137.914062 122.949219 125.589844 C 128.996094 113.339844 129.382812 100.304688 126.488281 87.277344 C 123.027344 71.714844 113.242188 62.113281 97.351562 59.386719 C 90.382812 58.1875 83.273438 58.621094 75.710938 58.632812 Z M 75.710938 58.632812 "/><path style=" stroke:none;fill-rule:nonzero;fill:#000000;fill-opacity:1;" d="M 379.761719 75.875 C 380.910156 77.644531 381.957031 79.261719 383.15625 81.117188 C 380.390625 82.007812 377.902344 81.238281 375.550781 81.648438 C 369.902344 82.632812 366.480469 80.425781 364.035156 75.234375 C 361.6875 70.261719 358.4375 65.714844 355.542969 61.003906 C 354.738281 59.695312 348.890625 58.90625 347.796875 59.910156 C 347.148438 60.507812 347.339844 61.339844 347.347656 62.082031 C 347.414062 67.527344 347.441406 72.972656 347.617188 78.414062 C 347.695312 80.847656 346.773438 81.792969 344.332031 81.625 C 341.960938 81.464844 339.566406 81.542969 337.1875 81.589844 C 335.523438 81.621094 334.683594 81.046875 334.6875 79.230469 C 334.71875 60.847656 334.71875 42.464844 334.6875 24.085938 C 334.6875 22.546875 335.273438 21.984375 336.796875 21.988281 C 345.734375 22.027344 354.695312 21.574219 363.597656 22.136719 C 371.789062 22.65625 379.027344 27.027344 380.753906 36.855469 C 382.15625 44.84375 379.851562 52.625 371.261719 57.3125 C 370.457031 57.753906 369.484375 57.945312 368.664062 59.175781 C 372.265625 64.597656 375.960938 70.160156 379.761719 75.875 M 366.839844 44.605469 C 369.191406 38.714844 366.925781 34.613281 360.753906 33.453125 C 357.027344 32.753906 353.300781 33.679688 349.589844 33.335938 C 347.699219 33.15625 347.273438 34.019531 347.3125 35.695312 C 347.398438 39.257812 347.390625 42.824219 347.335938 46.390625 C 347.3125 47.886719 347.835938 48.574219 349.398438 48.546875 C 352.367188 48.488281 355.355469 48.707031 358.308594 48.484375 C 361.425781 48.25 364.640625 47.925781 366.839844 44.605469 Z M 366.839844 44.605469 "/><path style=" stroke:none;fill-rule:nonzero;fill:#000000;fill-opacity:1;" d="M 432.4375 81.605469 C 427.863281 82.445312 425.359375 80.304688 423.117188 76.800781 C 419.003906 70.367188 414.460938 64.207031 409.960938 57.738281 C 406.882812 60.394531 403.925781 62.6875 404.421875 67.40625 C 404.820312 71.191406 404.421875 75.058594 404.527344 78.886719 C 404.582031 80.832031 403.972656 81.71875 401.929688 81.605469 C 399.804688 81.492188 397.675781 81.597656 395.546875 81.585938 C 391.53125 81.570312 391.511719 81.550781 391.511719 77.640625 C 391.511719 66.492188 391.511719 55.34375 391.511719 44.191406 C 391.515625 37.726562 391.574219 31.257812 391.492188 24.789062 C 391.464844 22.742188 392.082031 21.839844 394.253906 21.964844 C 396.886719 22.117188 399.53125 22.078125 402.167969 21.980469 C 403.949219 21.914062 404.546875 22.617188 404.527344 24.367188 C 404.460938 30.410156 404.492188 36.453125 404.523438 42.496094 C 404.527344 43.304688 404.242188 44.183594 404.90625 45.058594 C 407.070312 43.851562 408.21875 41.6875 409.757812 39.957031 C 414.511719 34.628906 419.136719 29.179688 423.761719 23.738281 C 424.773438 22.550781 425.847656 21.929688 427.46875 21.96875 C 431.625 22.0625 435.78125 22 439.84375 22 C 440.433594 22.945312 439.832031 23.410156 439.394531 23.90625 C 432.808594 31.367188 426.253906 38.855469 419.605469 46.261719 C 418.449219 47.546875 418.507812 48.3125 419.542969 49.667969 C 427.0625 59.546875 434.480469 69.507812 441.921875 79.449219 C 442.214844 79.839844 442.417969 80.296875 443.015625 81.339844 C 439.328125 81.835938 435.992188 81.5 432.4375 81.605469 Z M 432.4375 81.605469 "/><path style=" stroke:none;fill-rule:nonzero;fill:#000000;fill-opacity:1;" d="M 274.195312 66.25 C 279.4375 52.039062 284.617188 38.015625 289.734375 23.96875 C 290.25 22.5625 290.953125 21.933594 292.496094 21.972656 C 296.066406 22.0625 299.640625 22.046875 303.214844 21.992188 C 304.664062 21.96875 305.523438 22.394531 306.082031 23.871094 C 312.984375 42.238281 319.933594 60.582031 326.917969 78.917969 C 327.636719 80.8125 327.238281 81.636719 325.148438 81.605469 C 322.003906 81.558594 318.851562 81.535156 315.707031 81.621094 C 314.171875 81.664062 313.363281 81.03125 312.890625 79.632812 C 312.050781 77.140625 311.054688 74.695312 310.246094 72.195312 C 309.78125 70.753906 308.957031 70.164062 307.453125 70.175781 C 301.070312 70.214844 294.691406 70.210938 288.308594 70.167969 C 286.703125 70.15625 285.847656 70.765625 285.378906 72.34375 C 284.648438 74.78125 283.664062 77.140625 282.847656 79.554688 C 282.386719 80.914062 281.664062 81.675781 280.089844 81.625 C 277.113281 81.53125 274.132812 81.566406 271.15625 81.601562 C 269.273438 81.621094 268.703125 80.898438 269.398438 79.089844 C 271.007812 74.886719 272.546875 70.652344 274.195312 66.25 M 296.273438 40.488281 C 294.230469 46.429688 292.1875 52.371094 290.117188 58.40625 C 295.421875 58.871094 300.292969 58.726562 305.511719 58.523438 C 302.945312 51.214844 300.484375 44.203125 297.804688 36.578125 C 297.144531 38.25 296.773438 39.1875 296.273438 40.488281 Z M 296.273438 40.488281 "/><path style=" stroke:none;fill-rule:nonzero;fill:#000000;fill-opacity:1;" d="M 263.171875 146.957031 C 260.257812 142.046875 257.441406 137.296875 254.609375 132.554688 C 253.597656 130.863281 249.488281 129.824219 247.867188 130.820312 C 246.953125 131.382812 247.214844 132.320312 247.207031 133.128906 C 247.183594 138.058594 247.09375 142.996094 247.238281 147.921875 C 247.304688 150.191406 246.375 151.003906 244.277344 150.945312 C 241.902344 150.882812 239.523438 150.882812 237.148438 150.785156 C 235.746094 150.726562 235.101562 150.011719 235.105469 148.492188 C 235.144531 131.824219 235.144531 115.160156 235.109375 98.496094 C 235.105469 96.710938 235.859375 96.054688 237.550781 96.089844 C 245.957031 96.265625 254.375 95.632812 262.769531 96.570312 C 269.730469 97.347656 275.964844 102.828125 277.273438 109.433594 C 278.917969 117.722656 275.808594 124.929688 269.035156 128.542969 C 268.292969 128.9375 267.550781 129.328125 266.402344 129.9375 C 270.933594 136.800781 275.378906 143.539062 280.324219 151.03125 C 276.421875 151.03125 273.308594 150.792969 270.253906 151.09375 C 266.824219 151.433594 264.496094 150.382812 263.171875 146.957031 M 265.121094 115.886719 C 265.789062 109.859375 263.78125 107.382812 257.699219 107.003906 C 254.828125 106.824219 251.933594 107.003906 249.058594 106.886719 C 247.527344 106.820312 247.164062 107.5 247.1875 108.84375 C 247.234375 111.898438 247.261719 114.953125 247.179688 118.003906 C 247.136719 119.683594 247.859375 120.261719 249.457031 120.21875 C 252.589844 120.136719 255.730469 120.199219 258.863281 120.09375 C 261.597656 120.003906 263.761719 118.863281 265.121094 115.886719 Z M 265.121094 115.886719 "/><path style=" stroke:none;fill-rule:nonzero;fill:#000000;fill-opacity:1;" d="M 224.21875 112.039062 C 230.605469 129.246094 222.011719 146.160156 204.921875 150.296875 C 200.660156 151.328125 196.3125 151.042969 191.988281 151.050781 C 188.5 151.058594 185.015625 150.996094 181.527344 151.054688 C 179.714844 151.085938 178.925781 150.417969 178.929688 148.523438 C 178.972656 131.855469 178.960938 115.183594 178.941406 98.515625 C 178.941406 97.097656 179.402344 96.136719 180.921875 96.152344 C 188.894531 96.238281 196.925781 95.320312 204.824219 96.855469 C 213.710938 98.585938 220.351562 103.449219 224.21875 112.039062 M 191.578125 139.710938 C 195.316406 140.246094 199.023438 140.140625 202.65625 139.070312 C 210.242188 136.839844 213.929688 131.128906 213.730469 122.015625 C 213.570312 114.808594 209.578125 109.625 202.648438 107.613281 C 199.738281 106.769531 196.753906 107.019531 193.789062 106.9375 C 191.710938 106.882812 190.964844 107.75 191.003906 109.84375 C 191.109375 115.539062 190.984375 121.242188 191.054688 126.9375 C 191.105469 131.09375 190.75 135.257812 191.578125 139.710938 Z M 191.578125 139.710938 "/><path style=" stroke:none;fill-rule:nonzero;fill:#000000;fill-opacity:1;" d="M 188.304688 23.597656 C 198.925781 18.8125 208.960938 19.980469 218.585938 25.789062 C 221.160156 27.34375 221.09375 27.855469 219.121094 30.066406 C 217.535156 31.84375 215.898438 33.578125 214.367188 35.398438 C 213.273438 36.691406 212.3125 36.761719 210.898438 35.769531 C 207.375 33.300781 203.425781 32.210938 199.09375 32.558594 C 196.058594 32.800781 193.589844 34.546875 193.121094 36.867188 C 192.507812 39.945312 193.484375 41.785156 196.675781 43.402344 C 199.875 45.027344 203.375 45.828125 206.738281 47.003906 C 210.28125 48.242188 213.699219 49.660156 216.714844 51.988281 C 225.605469 58.855469 224.316406 77.296875 210.597656 81.296875 C 199.378906 84.5625 188.558594 83.171875 179.144531 75.378906 C 177.476562 73.996094 177.347656 73.046875 179.019531 71.597656 C 180.878906 69.988281 182.566406 68.171875 184.253906 66.375 C 185.410156 65.144531 186.429688 65.042969 187.746094 66.171875 C 190.652344 68.660156 194.066406 70.054688 197.820312 70.785156 C 200.441406 71.292969 202.90625 70.960938 205.253906 69.839844 C 209.398438 67.851562 209.769531 63.316406 206.03125 60.671875 C 203.492188 58.878906 200.5 58.117188 197.609375 57.125 C 195.125 56.265625 192.632812 55.414062 190.183594 54.464844 C 184.035156 52.078125 180.1875 47.675781 179.519531 41.066406 C 178.765625 33.59375 181.367188 27.546875 188.304688 23.597656 Z M 188.304688 23.597656 "/><path style=" stroke:none;fill-rule:nonzero;fill:#000000;fill-opacity:1;" d="M 417.679688 134.9375 C 416.320312 132.976562 415.070312 131.167969 413.644531 129.105469 C 410.949219 131.523438 408.132812 133.402344 408.523438 137.632812 C 408.84375 141.089844 408.46875 144.605469 408.628906 148.085938 C 408.730469 150.277344 407.746094 150.953125 405.800781 150.9375 C 403.761719 150.921875 401.71875 150.898438 399.679688 150.984375 C 397.371094 151.082031 396.5625 150.0625 396.578125 147.769531 C 396.65625 137.054688 396.605469 126.339844 396.601562 115.625 C 396.601562 110.097656 396.664062 104.570312 396.574219 99.042969 C 396.539062 96.839844 397.378906 95.945312 399.578125 96.0625 C 401.699219 96.175781 403.832031 96.183594 405.953125 96.078125 C 407.941406 95.984375 408.652344 96.765625 408.621094 98.757812 C 408.527344 104.371094 408.585938 109.984375 408.59375 115.59375 C 408.59375 116.183594 408.644531 116.769531 408.695312 117.820312 C 411.542969 115.304688 413.539062 112.507812 415.785156 109.964844 C 419.386719 105.890625 422.886719 101.726562 426.460938 97.628906 C 426.890625 97.136719 427.480469 96.546875 428.0625 96.460938 C 432.496094 95.816406 436.933594 96.085938 441.371094 96.195312 C 441.496094 96.445312 441.621094 96.695312 441.746094 96.945312 C 435.035156 104.628906 428.320312 112.316406 421.484375 120.144531 C 428.976562 130.105469 436.390625 139.96875 444.269531 150.445312 C 438.613281 151.105469 433.828125 151.179688 429.042969 150.421875 C 428.070312 150.265625 427.675781 149.199219 427.148438 148.449219 C 424.011719 144.003906 420.902344 139.542969 417.679688 134.9375 Z M 417.679688 134.9375 "/><path style=" stroke:none;fill-rule:nonzero;fill:#000000;fill-opacity:1;" d="M 289.433594 142.59375 C 287.097656 138.320312 286.085938 133.960938 286.148438 129.242188 C 286.28125 119.378906 286.1875 109.511719 286.195312 99.648438 C 286.199219 96.160156 286.210938 96.144531 289.796875 96.121094 C 291.75 96.109375 293.707031 96.164062 295.664062 96.167969 C 297.570312 96.175781 298.300781 97.039062 298.289062 99.011719 C 298.214844 109.21875 298.535156 119.433594 298.183594 129.625 C 297.867188 138.804688 305.78125 141.964844 312.523438 139.753906 C 316.699219 138.386719 318.851562 134.574219 318.832031 128.347656 C 318.804688 119.082031 318.65625 109.8125 318.582031 100.546875 C 318.546875 96.09375 318.570312 96.085938 323.113281 96.089844 C 324.898438 96.089844 326.683594 96.117188 328.46875 96.160156 C 330.105469 96.199219 330.882812 96.953125 330.875 98.703125 C 330.824219 109.761719 331.109375 120.824219 330.765625 131.871094 C 330.375 144.496094 321.519531 151.085938 310.976562 151.628906 C 303.628906 152.003906 296.929688 150.855469 291.570312 145.359375 C 290.804688 144.578125 290.210938 143.628906 289.433594 142.59375 Z M 289.433594 142.59375 "/><path style=" stroke:none;fill-rule:nonzero;fill:#000000;fill-opacity:1;" d="M 355.796875 111.53125 C 347.996094 120.578125 350.867188 135.03125 361.21875 139.214844 C 367.785156 141.867188 373.609375 140.054688 378.605469 135.519531 C 380.5 133.800781 381.746094 133.714844 383.472656 135.464844 C 384.84375 136.851562 386.359375 138.113281 387.917969 139.289062 C 389.175781 140.246094 389.164062 141.039062 388.195312 142.210938 C 383.9375 147.351562 378.5 150.625 371.9375 151.398438 C 364.65625 152.257812 357.515625 151.582031 351.179688 147.171875 C 344.117188 142.253906 340.234375 135.558594 339.261719 127.03125 C 338.382812 119.351562 339.898438 112.269531 344.59375 106.113281 C 350.621094 98.21875 358.8125 94.898438 368.671875 95.425781 C 375.789062 95.808594 382.132812 97.851562 387.15625 103.257812 C 388.769531 104.996094 388.867188 106.210938 386.808594 107.449219 C 386.734375 107.496094 386.664062 107.542969 386.597656 107.59375 C 384.644531 109.101562 382.894531 111.25 380.6875 111.941406 C 378.191406 112.71875 377.019531 109.496094 374.980469 108.386719 C 368.4375 104.816406 361.617188 105.769531 355.796875 111.53125 Z M 355.796875 111.53125 "/><path style=" stroke:none;fill-rule:nonzero;fill:#000000;fill-opacity:1;" d="M 242.828125 49.753906 C 242.828125 44.988281 242.761719 40.476562 242.863281 35.96875 C 242.902344 34.066406 242.179688 33.410156 240.328125 33.449219 C 236.5 33.53125 232.667969 33.410156 228.839844 33.492188 C 226.492188 33.539062 225.34375 32.675781 225.503906 30.203125 C 225.628906 28.253906 225.597656 26.289062 225.535156 24.332031 C 225.472656 22.554688 226.273438 21.976562 227.992188 21.980469 C 242.289062 22.023438 256.589844 22.027344 270.886719 21.980469 C 272.617188 21.976562 273.371094 22.519531 273.28125 24.324219 C 273.175781 26.445312 273.15625 28.582031 273.285156 30.703125 C 273.421875 32.902344 272.351562 33.515625 270.378906 33.488281 C 266.464844 33.429688 262.546875 33.554688 258.636719 33.445312 C 256.546875 33.386719 255.851562 34.117188 255.863281 36.242188 C 255.9375 50.285156 255.835938 64.328125 255.953125 78.367188 C 255.976562 81.003906 255.136719 81.84375 252.597656 81.640625 C 250.230469 81.453125 247.828125 81.5 245.453125 81.617188 C 243.175781 81.726562 242.792969 80.523438 242.804688 78.605469 C 242.855469 69.074219 242.828125 59.542969 242.828125 49.753906 Z M 242.828125 49.753906 "/></g></svg>